<mxfile host="Electron" agent="Mozilla/5.0 (Windows NT 10.0; Win64; x64) AppleWebKit/537.36 (KHTML, like Gecko) draw.io/27.0.9 Chrome/134.0.6998.205 Electron/35.4.0 Safari/537.36" version="27.0.9">
  <diagram name="第 1 页" id="N25IaM7o8o-dhbq3dd-E">
    <mxGraphModel dx="344" dy="241" grid="1" gridSize="4" guides="1" tooltips="1" connect="0" arrows="0" fold="1" page="1" pageScale="1" pageWidth="128" pageHeight="128" background="#B8CCD5" math="0" shadow="0" adaptiveColors="auto">
      <root>
        <mxCell id="0" />
        <mxCell id="1" parent="0" />
        <mxCell id="jhZqx02ZHJudHjzBM3b2-2" value="" style="ellipse;whiteSpace=wrap;html=1;aspect=fixed;strokeColor=#B8CCD5;strokeWidth=1;fillColor=#B8CCD5;shadow=0;spacing=0;" vertex="1" parent="1">
          <mxGeometry width="128" height="128" as="geometry" />
        </mxCell>
        <mxCell id="9upuvHP_RskWQWa4qbDM-4" value="" style="pointerEvents=1;shadow=0;dashed=0;html=1;strokeColor=#253945;fillColor=none;labelPosition=center;verticalLabelPosition=bottom;verticalAlign=top;outlineConnect=0;align=center;shape=mxgraph.office.concepts.book_journal;strokeWidth=2;" parent="1" vertex="1">
          <mxGeometry x="24" y="16" width="72" height="96" as="geometry" />
        </mxCell>
        <mxCell id="9upuvHP_RskWQWa4qbDM-1" value="&lt;span style=&quot;color: light-dark(rgb(37, 57, 69), rgb(177, 194, 204));&quot;&gt;Bu&lt;/span&gt;" style="text;align=center;verticalAlign=middle;rounded=0;fontSize=36;strokeColor=none;strokeWidth=0;spacing=0;fontColor=#253945;fontFamily=Maple Mono SC NF;horizontal=1;fontStyle=0;html=1;textShadow=0;labelBorderColor=none;labelBackgroundColor=none;whiteSpace=wrap;" parent="1" vertex="1">
          <mxGeometry x="36" y="24" width="64" height="32" as="geometry" />
        </mxCell>
        <mxCell id="jhZqx02ZHJudHjzBM3b2-1" value="Jo" style="text;align=center;verticalAlign=middle;rounded=0;fontSize=36;strokeColor=none;strokeWidth=0;spacing=0;fontColor=#253945;fontFamily=Maple Mono SC NF;horizontal=1;fontStyle=0;whiteSpace=wrap;html=1;textShadow=0;labelBorderColor=none;labelBackgroundColor=none;" vertex="1" parent="1">
          <mxGeometry x="36" y="56" width="64" height="32" as="geometry" />
        </mxCell>
      </root>
    </mxGraphModel>
  </diagram>
</mxfile>
